<?xml version="1.0" encoding="UTF-8"?>
<svg viewBox="0 0 302 339" xmlns="http://www.w3.org/2000/svg">
<path d="m267.08 88.215c26.57 35.277 41.868 77.769 31.803 111.84-9.662 34.074-45.088 59.73-85.346 82.179-40.66 22.448-86.554 41.69-127.62 30.466-41.063-11.625-77.295-54.519-84.541-99.817-7.2464-45.299 14.895-93.002 46.699-129.88 31.804-36.88 74.074-62.536 113.93-60.932 40.258 1.6034 78.1 30.466 105.07 66.144z" fill="#1597E5" opacity=".16"/>
<path d="m64.205 80.37h1.8583v-50.907c-1e-4 -3.8692 0.762-7.7005 2.2427-11.275s3.6509-6.8227 6.3869-9.5586c2.7359-2.7359 5.9839-4.9062 9.5586-6.3869 3.5747-1.4807 7.406-2.2428 11.275-2.2428h107.85c3.869-7.9049e-6 7.7 0.76208 11.275 2.2428 3.575 1.4807 6.823 3.6509 9.559 6.3869 2.736 2.7359 4.906 5.984 6.386 9.5586 1.481 3.5747 2.243 7.406 2.243 11.275v279.28c0 3.869-0.762 7.701-2.242 11.275-1.481 3.575-3.651 6.823-6.387 9.559s-5.984 4.906-9.559 6.387c-3.575 1.48-7.406 2.243-11.275 2.243h-107.85c-7.8142 0-15.308-3.105-20.834-8.63s-8.6297-13.02-8.6297-20.834v-192.14h-1.8583v-36.237z" fill="#3F3D56"/>
<path d="m94.338 7.6653h14.078c-0.647 1.5873-0.894 3.3094-0.719 5.0147s0.766 3.3414 1.722 4.7642c0.957 1.4228 2.248 2.5886 3.761 3.3947 1.513 0.8062 3.201 1.2279 4.915 1.228h61.787c1.715-1e-4 3.403-0.4218 4.915-1.2279 1.513-0.8062 2.805-1.972 3.761-3.3948s1.548-3.0589 1.723-4.7642-0.073-3.4274-0.72-5.0147h13.149c5.836 0 11.432 2.3182 15.559 6.4445 4.126 4.1263 6.444 9.7229 6.444 15.558v278.87c0 2.89-0.569 5.751-1.675 8.42-1.105 2.67-2.726 5.095-4.769 7.139-2.043 2.043-4.469 3.663-7.139 4.769-2.669 1.106-5.53 1.675-8.42 1.675h-108.37c-2.8895 0-5.7507-0.569-8.4202-1.675-2.6695-1.105-5.0951-2.726-7.1383-4.769-2.0432-2.044-3.6639-4.469-4.7697-7.139-1.1057-2.669-1.6748-5.53-1.6748-8.42v-278.87c0-2.8895 0.5691-5.7507 1.6748-8.4202 1.1058-2.6695 2.7265-5.0951 4.7697-7.1383s4.4688-3.6639 7.1383-4.7696c2.6695-1.1058 5.5307-1.6749 8.4202-1.6749z" fill="#fff"/>
<path d="m171.74 85.79h-46.437v11.206h46.437v-11.206z" fill="#1597E5"/>
<path d="m173.95 133.94h-50.858v11.206h50.858v-11.206z" fill="#E5E5E5"/>
<path d="m205.28 158.01h-113.51v11.206h113.51v-11.206z" fill="#E5E5E5"/>
<path d="m205.28 182.08h-113.51v11.206h113.51v-11.206z" fill="#E5E5E5"/>
<path d="m59.326 208.06-0.3255 0.679 7.0229 3.37 0.3255-0.678-7.0229-3.371z" opacity=".2"/>
<path d="m148.58 290c17.964 0 32.528-14.564 32.528-32.528 0-17.965-14.564-32.528-32.528-32.528-17.965 0-32.528 14.563-32.528 32.528 0 17.964 14.563 32.528 32.528 32.528z" fill="#1597E5"/>
<path d="m145.48 271.2-9.735-12.519 5.661-4.403 4.61 5.927 15.573-16.439 5.208 4.933-21.317 22.501z" fill="#fff"/>
</svg>
