<?xml version="1.0" encoding="UTF-8"?>
<svg viewBox="0 0 288 212" xmlns="http://www.w3.org/2000/svg">
<path d="m224.03 90.08 8.264 18.615-1.988 23.02c-0.625 0.53-1.067 1.242-1.263 2.036-0.197 0.795-0.139 1.631 0.166 2.39 0.305 0.76 0.841 1.404 1.533 1.841 0.692 0.438 1.503 0.647 2.32 0.597s1.598-0.356 2.231-0.874c0.634-0.518 1.088-1.223 1.298-2.014 0.211-0.79 0.167-1.627-0.125-2.392s-0.817-1.418-1.501-1.867l0.324-0.057 3.238-23.005-5.34-23.205-9.157 4.9154z" fill="#FFB8B8"/>
<path d="m200.43 211.17c8.146 0 14.749-0.688 14.749-1.537 0-0.848-6.603-1.536-14.749-1.536-8.145 0-14.749 0.688-14.749 1.536 0 0.849 6.604 1.537 14.749 1.537z" fill="#E6E6E6"/>
<path d="m244.06 211.17c8.145 0 14.749-0.688 14.749-1.537 0-0.848-6.604-1.536-14.749-1.536-8.146 0-14.749 0.688-14.749 1.536 0 0.849 6.603 1.537 14.749 1.537z" fill="#E6E6E6"/>
<path d="m277.86 211.17c5.6 0 10.139-0.473 10.139-1.057 0-0.583-4.539-1.056-10.139-1.056-5.601 0-10.14 0.473-10.14 1.056 0 0.584 4.539 1.057 10.14 1.057z" fill="#E6E6E6"/>
<path d="m280.76 202.11c-0.07 2.633-0.511 5.243-1.309 7.753-0.018 0.058-0.037 0.115-0.056 0.174h-4.889c5e-3 -0.052 0.01-0.111 0.015-0.174 0.326-3.749 2.206-26.558-0.042-30.458 0.198 0.316 6.661 10.797 6.281 22.705z" fill="#E6E6E6"/>
<path d="m280.4 209.86c-0.041 0.058-0.083 0.116-0.127 0.174h-3.667c0.028-0.05 0.06-0.106 0.097-0.174 0.606-1.094 2.399-4.364 4.064-7.753 1.789-3.643 3.431-7.423 3.292-8.792 0.043 0.309 1.281 9.717-3.659 16.545z" fill="#E6E6E6"/>
<path d="m120.22 0h-118.03c-0.57965 6.5524e-4 -1.1354 0.23121-1.5453 0.64109-0.40988 0.40987-0.64043 0.9656-0.64109 1.5453v100.93c6.5524e-4 0.58 0.23121 1.136 0.64109 1.545 0.40987 0.41 0.9656 0.641 1.5453 0.642h118.03c0.58-1e-3 1.135-0.232 1.545-0.642 0.41-0.409 0.641-0.965 0.641-1.545v-100.93c0-0.57965-0.231-1.1354-0.641-1.5453-0.41-0.40988-0.965-0.64043-1.545-0.64109zm1.308 103.12c0 0.347-0.137 0.68-0.383 0.927-0.245 0.246-0.578 0.385-0.925 0.387h-118.03c-0.34772-1e-3 -0.68081-0.14-0.92615-0.387-0.24534-0.246-0.38288-0.58-0.3824-0.927v-100.93c-4.7e-4 -0.34772 0.13706-0.68141 0.3824-0.92781s0.57843-0.38537 0.92615-0.3864h118.03c0.347 0.001682 0.68 0.14086 0.925 0.38712 0.246 0.24626 0.383 0.57957 0.383 0.92709v100.93z" fill="#3F3D56"/>
<path d="m29.431 87.356c0 0.1556-0.0042 0.3112-0.0124 0.4626-0.1193 2.2775-1.1081 4.4224-2.7625 5.9923-1.6543 1.5699-3.848 2.4451-6.1287 2.4451s-4.4744-0.8752-6.1287-2.4451-2.6431-3.7148-2.7625-5.9923c-0.0081-0.1514-0.0124-0.307-0.0124-0.4626 0-2.3613 0.9381-4.626 2.6078-6.2957s3.9343-2.6077 6.2956-2.6077c2.3614 0 4.626 0.938 6.2957 2.6077s2.6078 3.9344 2.6078 6.2957h3e-4z" fill="#1597E5"/>
<path d="m111.05 81.419h-69.958c-0.3839 0.0145-0.7473 0.1772-1.0138 0.454s-0.4154 0.6461-0.4154 1.0303 0.1489 0.7535 0.4154 1.0303 0.6299 0.4395 1.0138 0.454h69.958c0.393 0.0142 0.776-0.1283 1.064-0.3961 0.289-0.2678 0.459-0.639 0.474-1.0322s-0.127-0.7763-0.394-1.065c-0.268-0.2888-0.639-0.4598-1.032-0.4753-0.037-0.0014-0.075-0.0014-0.112 0z" fill="#1597E5"/>
<path d="m71.191 90.324h-30.103c-0.3931 0-0.7701 0.1561-1.048 0.4341-0.278 0.278-0.4341 0.655-0.4341 1.0481s0.1561 0.7701 0.4341 1.048c0.2779 0.278 0.6549 0.4342 1.048 0.4342h30.103c0.3931 6e-4 0.7704-0.1549 1.0488-0.4324 0.2785-0.2775 0.4352-0.6543 0.4359-1.0474 6e-4 -0.3931-0.1549-0.7703-0.4324-1.0488-0.2775-0.2784-0.6542-0.4352-1.0473-0.4358h-5e-3z" fill="#E6E6E6"/>
<path d="m148.26 70.408h-118.03c-0.6609-8e-4 -1.2946-0.2637-1.7619-0.731-0.4674-0.4674-0.7303-1.1011-0.731-1.762v-51.799c7e-4 -0.661 0.2636-1.2946 0.731-1.762 0.4673-0.4673 1.101-0.7302 1.7619-0.731h118.03c0.661 8e-4 1.294 0.2637 1.762 0.731 0.467 0.4674 0.73 1.101 0.731 1.762v51.798c-1e-3 0.6609-0.263 1.2947-0.73 1.7624-0.467 0.4676-1.101 0.7308-1.762 0.732z" fill="#1597E5"/>
<path d="m54.266 31.984c-0.3936-0.0172-0.7778 0.1226-1.0683 0.3888-0.2904 0.2661-0.4633 0.6368-0.4805 1.0303-0.0172 0.3936 0.1227 0.7779 0.3888 1.0683 0.2662 0.2905 0.6368 0.4633 1.0304 0.4805 0.0432 0.0019 0.0864 0.0019 0.1296 0h69.957c0.382-0.0167 0.743-0.1803 1.008-0.4568 0.264-0.2765 0.412-0.6444 0.412-1.0272 0-0.3827-0.148-0.7506-0.412-1.0271-0.265-0.2765-0.626-0.4401-1.008-0.4568h-69.957z" fill="#fff"/>
<path d="m54.266 40.583c-0.3936-0.0172-0.7778 0.1227-1.0683 0.3888-0.2904 0.2661-0.4633 0.6368-0.4805 1.0303-0.0172 0.3936 0.1227 0.7779 0.3888 1.0683 0.2662 0.2905 0.6368 0.4633 1.0304 0.4805 0.0432 0.0019 0.0864 0.0019 0.1296 0h69.957c0.382-0.0167 0.743-0.1803 1.008-0.4568 0.264-0.2765 0.412-0.6444 0.412-1.0271 0-0.3828-0.148-0.7507-0.412-1.0272-0.265-0.2765-0.626-0.4401-1.008-0.4568h-69.957z" fill="#fff"/>
<path d="m54.266 49.076c-0.3824 0.0167-0.7435 0.1803-1.0082 0.4568s-0.4124 0.6444-0.4124 1.0272c0 0.3827 0.1477 0.7506 0.4124 1.0271s0.6258 0.4401 1.0082 0.4568h30.103c0.1948 0.0085 0.3895-0.0214 0.5728-0.0881 0.1833-0.0668 0.3516-0.1689 0.4955-0.3007 0.1438-0.1318 0.2602-0.2906 0.3427-0.4674 0.0824-0.1768 0.1292-0.3681 0.1377-0.5629 0.0086-0.1949-0.0214-0.3896-0.0881-0.5729s-0.1689-0.3516-0.3007-0.4954c-0.1317-0.1439-0.2906-0.2603-0.4674-0.3428-0.1767-0.0824-0.368-0.1292-0.5629-0.1377-0.0432-0.0019-0.0864-0.0019-0.1296 0h-30.103z" fill="#fff"/>
<path d="m221.21 66.948c4.536 0 8.212-3.6768 8.212-8.2123 0-4.5356-3.676-8.2124-8.212-8.2124s-8.212 3.6768-8.212 8.2124c0 4.5355 3.676 8.2123 8.212 8.2123z" fill="#FFB8B8"/>
<path d="m204.96 102.53 21.569 4.013c7.271-13.322 11.281-25.351 4.514-33.106l-12.791-0.7526c-8.173 8.7397-15.085 17.221-10.388 23.325l-2.904 6.5201z" fill="#1597E5"/>
<path d="m224.17 92.072c4.936 1.8886 9.517 0.2476 13.722-5.1355l-6.232-12.024-7.942 1.5738 0.452 15.586z" fill="#1597E5"/>
<path d="m202.96 202.35 8.527-0.438 5.517-57.747 28.09 57.435 8.778-0.251-16.802-50.413c-0.663-16.818-1.356-33.593-8.527-40.88l-2.508-5.267-20.064-4.264-2.758 5.267c-6.397 14.936-2.642 57.613-0.253 96.558z" fill="#2F2E41"/>
<path d="m213.24 86.732-7.022 19.063-12.734 18.12c-0.816 0.053-1.595 0.362-2.227 0.883-0.631 0.521-1.082 1.227-1.29 2.019-0.207 0.792-0.16 1.629 0.135 2.392s0.823 1.415 1.509 1.861c0.686 0.447 1.495 0.666 2.313 0.627 0.817-0.039 1.601-0.335 2.242-0.844 0.64-0.51 1.103-1.209 1.324-1.997s0.188-1.625-0.093-2.394l0.294 0.147 16.302-16.551 9.53-21.821-10.283-1.5048z" fill="#FFB8B8"/>
<path d="m211.48 86.732c3.513 3.9483 8.336 4.5976 14.546 1.7556v-13.543l-7.775-2.257-6.771 14.044z" fill="#1597E5"/>
<path d="m246.96 81.604c-1.249-1.5621-2.992-2.6359-4.681-3.7046-1.69-1.0688-3.406-2.2044-4.555-3.8418-1.832-2.6129-1.919-6.0494-1.646-9.2288s0.833-6.4271 0.058-9.523c-1.025-4.0954-4.418-7.4114-8.427-8.7337-4.01-1.3224-8.519-0.7579-12.29 1.1391l1.036-0.9785c-0.826 0.1702-1.58 0.5895-2.16 1.2013-0.58 0.6119-0.959 1.3869-1.085 2.2207-0.127 0.8338 5e-3 1.6863 0.378 2.4426 0.374 0.7564 0.969 1.3802 1.708 1.7875 1.701 0.9383 4.019 0.6695 5.386 2.0488 1.346 1.3598 1.064 3.5918 0.578 5.4421-1.257 4.79-3.251 9.401-3.942 14.304-0.691 4.9024 0.182 10.396 3.82 13.755 2.674 2.4696 6.473 3.4224 10.111 3.3495 3.639-0.0729 7.19-1.0684 10.691-2.0587 2.456-0.6938 5.227-1.6565 6.189-4.0218 0.754-1.8507 0.08-4.0374-1.169-5.5995z" fill="#2F2E41"/>
<path d="m211.7 208.96h-18.308v-0.232c0-1.89 0.751-3.703 2.087-5.039s3.149-2.087 5.039-2.087h11.183l-1e-3 7.358z" fill="#2F2E41"/>
<path d="m254.14 208.25-18.309-1e-3v-0.231c0-1.89 0.751-3.703 2.088-5.039 1.336-1.337 3.148-2.087 5.038-2.087h1e-3 11.182v7.358z" fill="#2F2E41"/>
</svg>
