<?xml version="1.0" encoding="UTF-8"?>
<svg viewBox="0 0 295 205" xmlns="http://www.w3.org/2000/svg">
<path d="m58.706 205c32.422 0 58.706-1.996 58.706-4.459 0-2.462-26.283-4.458-58.706-4.458s-58.706 1.996-58.706 4.458c0 2.463 26.284 4.459 58.706 4.459z" fill="#E6E6E6"/>
<path d="m44.874 45.486c10.217-4.3455 22.942-1.5923 35.369 0.3186 0.1157-2.3141 1.5174-5.1304 0.0491-6.7448-1.7839-1.9614-1.6197-4.0222-0.5462-6.095 2.745-5.3002-1.1879-10.94-5.1589-15.629-0.895-1.0546-2.0261-1.8832-3.3015-2.4185s-2.6591-0.7623-4.0387-0.6624l-7.3559 0.5254c-1.79 0.1279-3.4983 0.7993-4.8962 1.9246-1.3979 1.1252-2.4189 2.6506-2.9262 4.3719-1.7564 2.3888-2.6965 4.771-2.1047 7.1408-2.6308 1.7979-3.0728 3.9681-1.8906 6.4147 1.0024 1.5405 0.9918 3.0399-0.0456 4.4979-1.3624 1.8589-2.4059 3.9315-3.0877 6.133l-0.0658 0.2232z" fill="#2F2E41"/>
<path d="m287.66 177.22h-208.23c-1.8517 0-3.6276-0.735-4.937-2.045-1.3094-1.309-2.045-3.085-2.045-4.937 75.482-8.772 149.55-8.772 222.19 0 0 1.852-0.736 3.628-2.045 4.937-1.309 1.31-3.085 2.045-4.937 2.045z" fill="#2F2E41"/>
<path d="m294.64 170.65-222.19-0.411 25.751-43.329 0.1232-0.205v-95.494c-1e-4 -1.1591 0.2282-2.3069 0.6717-3.3777 0.4435-1.0709 1.0933-2.0439 1.9133-2.8635s1.793-1.4697 2.863-1.9132c1.071-0.4435 2.219-0.6718 3.378-0.6717h151.56c1.16-1e-4 2.307 0.2282 3.378 0.6717s2.044 1.0936 2.864 1.9132c0.819 0.8196 1.469 1.7926 1.913 2.8635 0.443 1.0708 0.672 2.2186 0.672 3.3777v96.15l27.106 43.288z" fill="#3F3D56"/>
<path d="m106.95 28.544c-0.762 8e-4 -1.493 0.304-2.032 0.843-0.539 0.5389-0.842 1.2697-0.843 2.0319v87.069c1e-3 0.763 0.304 1.493 0.843 2.032s1.27 0.843 2.032 0.843h153.19c0.762-1e-3 1.493-0.304 2.032-0.843s0.842-1.269 0.843-2.032v-87.069c-1e-3 -0.7622-0.304-1.4929-0.843-2.0319s-1.27-0.8421-2.032-0.843h-153.19z" fill="#fff"/>
<path d="m107.6 132.86c-0.236 0-0.466 0.068-0.665 0.195-0.198 0.127-0.356 0.308-0.455 0.522l-7.9344 17.25c-0.0864 0.188-0.1242 0.394-0.1099 0.6s0.0802 0.405 0.1917 0.579c0.1114 0.174 0.2648 0.318 0.4461 0.417s0.3846 0.151 0.5913 0.151h166.86c0.21 0 0.417-0.054 0.6-0.156 0.184-0.102 0.338-0.25 0.448-0.429 0.111-0.178 0.174-0.382 0.183-0.592s-0.035-0.418-0.129-0.606l-8.625-17.25c-0.101-0.205-0.259-0.377-0.453-0.498-0.195-0.12-0.42-0.184-0.648-0.183h-150.3z" fill="#2F2E41"/>
<path d="m182.93 27.106c1.02 0 1.848-0.8275 1.848-1.8482s-0.828-1.8481-1.848-1.8481c-1.021 0-1.849 0.8274-1.849 1.8481s0.828 1.8482 1.849 1.8482z" fill="#fff"/>
<path d="m166.53 155.86c-0.271 0-0.534 0.089-0.749 0.254s-0.37 0.396-0.441 0.657l-1.99 7.393c-0.049 0.183-0.056 0.374-0.019 0.56 0.037 0.185 0.116 0.36 0.231 0.51s0.263 0.272 0.432 0.355c0.17 0.084 0.356 0.127 0.546 0.127h37.852c0.196 0 0.39-0.046 0.564-0.137 0.175-0.09 0.325-0.22 0.439-0.38s0.188-0.345 0.216-0.539c0.028-0.195 9e-3 -0.393-0.055-0.579l-2.559-7.392c-0.084-0.242-0.241-0.452-0.45-0.601-0.209-0.148-0.458-0.228-0.715-0.228h-33.302z" fill="#2F2E41"/>
<path d="m267.54 125.26v1.643h-169.33l0.1274-0.205v-1.438h169.21z" fill="#2F2E41"/>
<path d="m262.82 57.499c15.878 0 28.749-12.872 28.749-28.749 0-15.878-12.871-28.749-28.749-28.749s-28.75 12.872-28.75 28.749c0 15.878 12.872 28.749 28.75 28.749z" fill="#1597E5"/>
<path d="m274.73 41.276h-23.821c-0.436-4e-4 -0.853-0.1737-1.161-0.4816-0.308-0.308-0.481-0.7256-0.482-1.1612v-14.375c1e-3 -0.4356 0.174-0.8532 0.482-1.1611 0.308-0.308 0.725-0.4813 1.161-0.4817h23.821c0.435 4e-4 0.853 0.1737 1.161 0.4817 0.308 0.3079 0.481 0.7255 0.482 1.1611v14.375c-1e-3 0.4355-0.174 0.8532-0.482 1.1612s-0.726 0.4812-1.161 0.4816zm-23.821-16.018v14.375h23.822l-1e-3 -14.375h-23.821z" fill="#fff"/>
<path d="m270.21 25.258h-14.785v-6.5713c0-4.7596 3.109-8.2141 7.393-8.2141 4.283 0 7.392 3.4545 7.392 8.2141v6.5713zm-13.142-1.6428h11.499v-4.9285c0-3.869-2.364-6.5712-5.749-6.5712-3.386 0-5.75 2.7022-5.75 6.5712v4.9285z" fill="#fff"/>
<path d="m262.82 33.678c0.907 0 1.642-0.7356 1.642-1.6429s-0.735-1.6428-1.642-1.6428c-0.908 0-1.643 0.7355-1.643 1.6428s0.735 1.6429 1.643 1.6429z" fill="#fff"/>
<path d="m242.75 91.83h-118.39c-0.581-7e-4 -1.138-0.2319-1.549-0.6429s-0.643-0.9683-0.643-1.5495v-29.368c0-0.5813 0.232-1.1385 0.643-1.5496 0.411-0.411 0.968-0.6422 1.549-0.6429h118.39c0.581 7e-4 1.139 0.2319 1.55 0.6429 0.411 0.4111 0.642 0.9683 0.643 1.5496v29.368c-1e-3 0.5812-0.232 1.1385-0.643 1.5495s-0.969 0.6422-1.55 0.6429zm-118.39-32.876c-0.349 4e-4 -0.683 0.1391-0.93 0.3857-0.246 0.2467-0.385 0.581-0.385 0.9298v29.368c0 0.3487 0.139 0.6831 0.385 0.9297 0.247 0.2466 0.581 0.3854 0.93 0.3857h118.39c0.349-3e-4 0.683-0.1391 0.93-0.3857s0.385-0.581 0.386-0.9297v-29.368c-1e-3 -0.3488-0.139-0.6832-0.386-0.9298s-0.581-0.3853-0.93-0.3857h-118.39z" fill="#E6E6E6"/>
<path d="m142.75 82.758c4.932 0 8.931-3.9985 8.931-8.9309s-3.999-8.9309-8.931-8.9309c-4.933 0-8.931 3.9985-8.931 8.9309s3.998 8.9309 8.931 8.9309z" fill="#E6E6E6"/>
<path d="m163.38 67.873c-0.196-3e-4 -0.389 0.038-0.57 0.1126-0.181 0.0747-0.345 0.1843-0.484 0.3225-0.138 0.1383-0.248 0.3025-0.323 0.4832-0.075 0.1808-0.114 0.3745-0.114 0.5702s0.039 0.3894 0.114 0.5702c0.075 0.1807 0.185 0.3449 0.323 0.4831 0.139 0.1383 0.303 0.2479 0.484 0.3225 0.181 0.0747 0.374 0.113 0.57 0.1127h70.172c0.394 0 0.773-0.1569 1.052-0.436s0.436-0.6577 0.436-1.0525-0.157-0.7734-0.436-1.0525c-0.279-0.2792-0.658-0.436-1.052-0.436h-70.172z" fill="#E6E6E6"/>
<path d="m163.38 76.804c-0.395 0-0.774 0.1569-1.053 0.436s-0.436 0.6577-0.436 1.0525 0.157 0.7734 0.436 1.0525c0.279 0.2792 0.658 0.436 1.053 0.436h30.195c0.394 0 0.773-0.1568 1.052-0.436 0.279-0.2791 0.436-0.6577 0.436-1.0525s-0.157-0.7734-0.436-1.0525-0.658-0.436-1.052-0.436h-30.195z" fill="#E6E6E6"/>
<path d="m97.913 77.406-21.886 11.636-0.277-9.6963c7.1434-1.1925 13.94-3.2687 20.224-6.6488l2.289-5.6552c0.2494-0.6162 0.6548-1.1569 1.1764-1.5692 0.5215-0.4122 1.1415-0.6817 1.7985-0.7821 0.657-0.1003 1.329-0.0281 1.95 0.2097s1.169 0.633 1.591 1.1466c0.617 0.7516 0.926 1.7098 0.863 2.6804-0.062 0.9706-0.492 1.8811-1.201 2.547l-6.5276 6.1324z" fill="#FFB8B8"/>
<path d="m44.438 144.58c-0.1597-0.585-0.1936-1.198-0.0995-1.798 0.0941-0.599 0.3141-1.172 0.6454-1.681l4.8077-7.378c1.1371-1.745 2.882-3.006 4.896-3.537s4.1536-0.296 6.0037 0.662c-2.0206 3.439-1.7389 6.456 0.6978 9.078-3.7827 1.847-7.2787 4.23-10.38 7.076-0.5661 0.386-1.2163 0.631-1.8963 0.715-0.6801 0.084-1.3703 4e-3 -2.0132-0.233s-1.2199-0.624-1.6829-1.129-0.7986-1.114-0.9788-1.775z" fill="#2F2E41"/>
<path d="m98.91 134.94c-0.7275 1.213-1.7545 2.218-2.9823 2.919s-2.6153 1.075-4.0293 1.086l-31.939 0.242-1.3852-8.034 14.129-4.156-11.913-9.142 13.021-15.237 23.65 22.043c1.3823 1.288 2.2804 3.012 2.5442 4.883 0.264 1.871-0.1227 3.776-1.0948 5.396z" fill="#2F2E41"/>
<path d="m54.973 189.88h-7.48c-6.716-46.035-13.552-92.199 6.6488-109.43l23.825 3.8785-3.0474 20.224-13.298 15.237-6.6488 70.09z" fill="#2F2E41"/>
<path d="m61.548 200.31c-0.5855 0.16-1.1983 0.194-1.7979 0.1s-1.1725-0.314-1.681-0.646l-8.1218-1.091c-1.7452-1.137-3.0058-2.882-3.5373-4.896-0.5314-2.014-0.2958-4.154 0.6611-6.004 3.4394 2.02 6.4566 1.739 9.0785-0.698 1.8525 3.74 4.9049 3.512 7.82 6.664 0.386 0.566 0.6311 1.216 0.7149 1.896 0.0839 0.68 4e-3 1.37-0.2329 2.013s-0.624 1.22-1.1291 1.683-1.1134 0.799-1.7745 0.979z" fill="#2F2E41"/>
<path d="m72.703 49.702-13.852-3.3244c2.3005-4.7091 2.49-9.9489 1.3851-15.514l9.4193-0.277c0.2951 6.9204 1.188 13.386 3.0474 19.116z" fill="#FFB8B8"/>
<path d="m76.51 92.673c-10.084 6.8713-17.208 0.2351-22.645-10.004 0.7555-6.2652-0.4678-13.763-2.7335-21.909-1.0076-3.5932-0.6314-7.4337 1.0543-10.763 1.6857-3.3295 4.5584-5.9059 8.051-7.2207l11.913 4.9866c10.115 8.245 12.106 17.176 8.3111 26.596l-3.9501 18.315z" fill="#1597E5"/>
<path d="m47.493 56.628-11.081 5.8178 19.67 11.636 2.7369 6.7511c0.1826 0.4506 0.2716 0.9336 0.2615 1.4197s-0.1191 0.9651-0.3204 1.4077-0.4906 0.8396-0.8503 1.1667c-0.3597 0.3272-0.7822 0.5776-1.2419 0.7361-0.5225 0.1802-1.0796 0.237-1.6277 0.1659s-1.0723-0.2681-1.5316-0.5756-0.8411-0.7171-1.1156-1.1968-0.4343-1.0165-0.4667-1.5682l-0.2768-4.7051-25-8.2499c-0.8423-0.278-1.6103-0.744-2.2459-1.3627-0.6355-0.6187-1.1219-1.374-1.4224-2.2085-0.4379-1.2165-0.4602-2.5439-0.0634-3.7744 0.3969-1.2305 1.1904-2.2947 2.2566-3.0261l20.103-13.792 2.2162 11.358z" fill="#FFB8B8"/>
<path d="m58.575 57.736c-4.6217-2.0254-8.8242 0.1748-14.129 1.9392l-0.8312-14.683c5.2673-2.8074 10.289-3.5643 14.96-1.3852v14.129z" fill="#1597E5"/>
<path d="m64.103 37.86c4.8844 0 8.8439-3.9595 8.8439-8.8438 0-4.8844-3.9595-8.8439-8.8439-8.8439-4.8843 0-8.8438 3.9595-8.8438 8.8439 0 4.8843 3.9595 8.8438 8.8438 8.8438z" fill="#FFB8B8"/>
<path d="m74.683 27.9c-8.7562 0.8576-15.428-0.5745-19.693-4.6519v-3.2837h18.95l0.7431 7.9356z" fill="#2F2E41"/>
</svg>
