<?xml version="1.0" encoding="UTF-8"?>
<svg viewBox="0 0 320 195" xmlns="http://www.w3.org/2000/svg">
<path d="m248.8 138.46c0.404-0.304 0.737-0.692 0.975-1.138s0.375-0.938 0.401-1.443c0.027-0.504-0.058-1.008-0.249-1.476-0.19-0.468-0.48-0.888-0.851-1.232l4.965-11.232-6.308 1.066-3.748 10.502c-0.538 0.66-0.815 1.493-0.778 2.342 0.037 0.85 0.385 1.656 0.979 2.266 0.593 0.611 1.391 0.983 2.241 1.047 0.85 0.063 1.695-0.187 2.373-0.702z" fill="#A0616A"/>
<path d="m258.31 88.699-1.807-0.3603s-2.531 1.081-2.169 4.3243c0.361 3.2432-5.061 20.541-5.061 20.541l-4.88 14.414 6.868 1.442 4.519-16.577 2.53-23.784z" fill="#ccc"/>
<path d="m266.51 143.82h-39.278c-0.776-1e-3 -1.521-0.309-2.07-0.856s-0.858-1.289-0.859-2.063v-3.778c1e-3 -0.774 0.31-1.517 0.859-2.064s1.294-0.855 2.07-0.856h39.278c0.777 1e-3 1.521 0.309 2.07 0.856s0.858 1.29 0.859 2.064v3.778c-1e-3 0.774-0.31 1.516-0.859 2.063s-1.293 0.855-2.07 0.856z" fill="#1597E5"/>
<path d="m264.18 185.3-3.963 1.458-7.528-14.543 5.849-2.152 5.642 15.237z" fill="#A0616A"/>
<path d="m256.97 186.67 7.642-2.813 1.777 4.797-12.455 4.583c-0.233-0.63-0.339-1.299-0.313-1.97s0.185-1.33 0.467-1.94 0.681-1.159 1.176-1.615c0.494-0.455 1.074-0.81 1.706-1.042z" fill="#2F2E41"/>
<path d="m271.75 191.35-4.22-0.191-1.269-16.316 6.228 0.281-0.739 16.226z" fill="#A0616A"/>
<path d="m264.46 189.89h8.147v5.113h-13.276c0-0.671 0.133-1.336 0.391-1.957 0.257-0.62 0.635-1.184 1.111-1.658 0.477-0.475 1.042-0.852 1.664-1.109 0.623-0.257 1.29-0.389 1.963-0.389z" fill="#2F2E41"/>
<path d="m252.89 124.74c-3.279 3.736-5.206 8.46-5.474 13.416l-1.394 25.863 12.29 21.622 6.869-3.604-8.315-16.216 5.061-15.495 13.737-10.811-1.085-15.496-21.689 0.721z" fill="#2F2E41"/>
<path d="m272.04 138.07 3.615 1.441-2.892 49.73-8.314-1.081-2.531-37.838 10.122-12.252z" fill="#2F2E41"/>
<path d="m264.35 133.19c0.089-0.497 0.287-0.968 0.578-1.381 0.292-0.413 0.671-0.757 1.111-1.008 0.439-0.251 0.929-0.402 1.433-0.444 0.505-0.042 1.013 0.026 1.488 0.201l7.814-9.485 1.892 6.093-7.71 8.073c-0.348 0.776-0.969 1.399-1.746 1.749s-1.656 0.404-2.47 0.152c-0.814-0.253-1.507-0.794-1.948-1.522-0.44-0.728-0.598-1.592-0.442-2.428z" fill="#A0616A"/>
<path d="m267.24 82.757c4.673 0 8.462-3.7769 8.462-8.436 0-4.659-3.789-8.4359-8.462-8.4359-4.674 0-8.463 3.7769-8.463 8.4359 0 4.6591 3.789 8.436 8.463 8.436z" fill="#A0616A"/>
<path d="m279.82 90.321s-9.761-9.1892-23.136-2.1622c0 0-3.434 34.774-5.603 38.378 0 0 18.798-2.523 23.858-1.081 0 0 0-15.135 3.254-20.901 3.253-5.7657 1.627-14.234 1.627-14.234z" fill="#ccc"/>
<path d="m276.02 91.222 3.967-0.7306c1.98 1.1476 3.512 2.9292 4.348 5.0549 1.446 3.6037 5.422 21.261 5.422 21.261l-15.544 15.496-3.254-4.685 9.761-12.973-5.061-10.811 0.361-12.612z" fill="#ccc"/>
<path d="m274.48 78.834c0.036-0.1059 0.048-0.2186 0.034-0.3296-0.015-0.111-0.054-0.2173-0.116-0.3108s-0.144-0.1716-0.241-0.2284c-0.096-0.0568-0.205-0.0908-0.317-0.0994-0.229 0.0124-0.453 0.071-0.659 0.1723-0.206 0.1012-0.389 0.243-0.538 0.4167-0.307 0.352-0.663 0.6572-1.059 0.9058-0.409 0.2057-0.964 0.1764-1.197-0.2158-0.22-0.3683-0.069-0.8614 0.063-1.2892 0.338-1.0883 0.527-2.217 0.562-3.3557 0.038-1.2709-0.142-2.5973-0.848-3.5886-0.911-1.2793-2.539-1.765-4.081-1.7298s-3.058 0.5096-4.585 0.8094c-0.527 0.1036-1.147 0.1565-1.499-0.2508-0.375-0.433-0.237-1.1339-0.078-1.7186 0.414-1.5173 0.853-3.086 1.814-4.3113 1.04-1.2733 2.524-2.1066 4.156-2.3322 1.566-0.1934 3.155-0.0135 4.638 0.5249 2.416 0.759 4.541 2.2352 6.093 4.2311 1.599 2.1225 2.29 4.7899 1.922 7.419-0.36 2.2897-1.577 4.3584-3.407 5.789" fill="#2F2E41"/>
<path d="m186.74 144.94h-183.64c-0.82212-1e-3 -1.6103-0.327-2.1916-0.906-0.58133-0.58-0.90833-1.366-0.90926-2.185v-138.76c9.5474e-4 -0.81955 0.32796-1.6053 0.90929-2.1848 0.58133-0.57951 1.3695-0.9055 2.1916-0.90645h183.64c0.822 9.2363e-4 1.61 0.32691 2.192 0.90642 0.581 0.57952 0.908 1.3652 0.909 2.1848v138.76c-1e-3 0.819-0.328 1.605-0.909 2.185-0.582 0.579-1.37 0.905-2.192 0.906zm-183.64-144.26c-0.63943 7.14e-4 -1.2525 0.25425-1.7046 0.70499-0.45215 0.45073-0.70648 1.0619-0.7072 1.6993v138.76c7.45e-4 0.637 0.25508 1.248 0.70723 1.699 0.45214 0.451 1.0652 0.704 1.7046 0.705h183.64c0.639-1e-3 1.252-0.254 1.705-0.705 0.452-0.451 0.706-1.062 0.707-1.699v-138.76c-1e-3 -0.63742-0.255-1.2485-0.707-1.6993-0.453-0.45073-1.066-0.70428-1.705-0.70502h-183.64z" fill="#E6E6E6"/>
<path d="m168.83 32.973h-147.81c-0.8221-1e-3 -1.6103-0.327-2.1916-0.9065s-0.9083-1.3652-0.9093-2.1848v-10.648c1e-3 -0.8196 0.328-1.6053 0.9093-2.1848s1.3695-0.9055 2.1916-0.9064h147.81c0.822 9e-4 1.61 0.3269 2.191 0.9064 0.582 0.5795 0.909 1.3652 0.91 2.1848v10.648c-1e-3 0.8196-0.328 1.6053-0.91 2.1848-0.581 0.5796-1.369 0.9055-2.191 0.9065zm-147.81-16.143c-0.6394 7e-4 -1.2525 0.2543-1.7046 0.705-0.4522 0.4507-0.7065 1.0619-0.7072 1.6993v10.648c7e-4 0.6375 0.255 1.2486 0.7072 1.6993 0.4521 0.4508 1.0652 0.7043 1.7046 0.705h147.81c0.639-7e-4 1.252-0.2543 1.704-0.705s0.707-1.0618 0.708-1.6993v-10.648c-1e-3 -0.6374-0.256-1.2485-0.708-1.6993-0.452-0.4507-1.065-0.7043-1.704-0.705h-147.81z" fill="#fff"/>
<path d="m79.59 61.481h-58.573c-0.8221-9e-4 -1.6103-0.3269-2.1916-0.9064-0.5813-0.5796-0.9083-1.3653-0.9093-2.1848v-10.648c1e-3 -0.8195 0.328-1.6052 0.9093-2.1847 0.5813-0.5796 1.3695-0.9055 2.1916-0.9065h58.573c0.8222 1e-3 1.6103 0.3269 2.1917 0.9065 0.5813 0.5795 0.9083 1.3652 0.9093 2.1847v10.648c-1e-3 0.8195-0.328 1.6052-0.9093 2.1848-0.5814 0.5795-1.3695 0.9055-2.1917 0.9064zm-58.573-16.143c-0.6394 8e-4 -1.2525 0.2543-1.7046 0.705-0.4522 0.4508-0.7065 1.0619-0.7072 1.6993v10.648c7e-4 0.6374 0.255 1.2485 0.7072 1.6993 0.4521 0.4507 1.0652 0.7043 1.7046 0.705h58.573c0.6395-8e-4 1.2525-0.2543 1.7047-0.705 0.4521-0.4508 0.7065-1.0619 0.7072-1.6993v-10.648c-7e-4 -0.6374-0.2551-1.2485-0.7072-1.6993-0.4522-0.4507-1.0652-0.7042-1.7047-0.705h-58.573z" fill="#fff"/>
<path d="m168.83 61.481h-58.573c-0.822-9e-4 -1.611-0.3269-2.192-0.9064-0.581-0.5796-0.908-1.3653-0.909-2.1848v-10.648c1e-3 -0.8195 0.328-1.6052 0.909-2.1847 0.581-0.5796 1.37-0.9055 2.192-0.9065h58.573c0.822 9e-4 1.61 0.3269 2.191 0.9064 0.582 0.5795 0.909 1.3653 0.909 2.1848v10.648c0 0.8195-0.327 1.6053-0.909 2.1848-0.581 0.5795-1.369 0.9055-2.191 0.9064zm-58.573-16.143c-0.64 8e-4 -1.253 0.2543-1.705 0.705-0.452 0.4508-0.706 1.0619-0.707 1.6993v10.648c1e-3 0.6374 0.255 1.2485 0.707 1.6993 0.452 0.4507 1.065 0.7043 1.705 0.705h58.573c0.639-8e-4 1.252-0.2543 1.704-0.7051 0.452-0.4507 0.707-1.0618 0.707-1.6992v-10.648c0-0.6374-0.255-1.2485-0.707-1.6992-0.452-0.4508-1.065-0.7043-1.704-0.7051h-58.573z" fill="#fff"/>
<path d="m169 128.8h-39.278c-0.777-1e-3 -1.521-0.309-2.07-0.856s-0.858-1.289-0.859-2.064v-3.778c1e-3 -0.774 0.31-1.516 0.859-2.063s1.293-0.855 2.07-0.856h39.278c0.776 1e-3 1.521 0.309 2.07 0.856s0.858 1.289 0.859 2.063v3.778c-1e-3 0.775-0.31 1.517-0.859 2.064s-1.294 0.855-2.07 0.856z" fill="#E6E6E6"/>
<path d="m27.564 79.342c-0.5452 0-1.0781-0.1612-1.5314-0.4631-0.4532-0.3019-0.8065-0.7311-1.0152-1.2332-0.2086-0.5021-0.2632-1.0545-0.1568-1.5876 0.1063-0.533 0.3689-1.0226 0.7543-1.4069 0.3855-0.3842 0.8767-0.6459 1.4114-0.752 0.5346-0.106 1.0889-0.0516 1.5925 0.1564 0.5037 0.208 0.9342 0.5602 1.237 1.012 0.3029 0.4519 0.4646 0.9831 0.4646 1.5266-9e-4 0.7285-0.2915 1.4269-0.8083 1.942-0.5167 0.5152-1.2173 0.8049-1.9481 0.8058zm0-4.8086c-0.4089 0-0.8086 0.1209-1.1485 0.3473-0.34 0.2264-0.605 0.5483-0.7614 0.9249-0.1565 0.3765-0.1974 0.7909-0.1177 1.1907 0.0798 0.3997 0.2767 0.7669 0.5658 1.0551s0.6575 0.4845 1.0585 0.564 0.8167 0.0387 1.1944-0.1173c0.3778-0.1559 0.7006-0.4201 0.9278-0.759 0.2271-0.3389 0.3484-0.7373 0.3484-1.1449-6e-4 -0.5464-0.2186-1.0702-0.6062-1.4566-0.3875-0.3863-0.913-0.6036-1.4611-0.6042z" fill="#E6E6E6"/>
<path d="m27.564 88.272c-0.5452 0-1.0781-0.1611-1.5314-0.463-0.4532-0.302-0.8065-0.7311-1.0152-1.2332-0.2086-0.5021-0.2632-1.0546-0.1568-1.5876 0.1063-0.533 0.3689-1.0226 0.7543-1.4069 0.3855-0.3843 0.8767-0.646 1.4114-0.752 0.5346-0.106 1.0889-0.0516 1.5925 0.1564 0.5037 0.208 0.9342 0.5601 1.237 1.012 0.3029 0.4519 0.4646 0.9831 0.4646 1.5266-9e-4 0.7285-0.2915 1.4269-0.8083 1.942-0.5167 0.5151-1.2173 0.8049-1.9481 0.8057zm0-4.8085c-0.4089 0-0.8086 0.1208-1.1485 0.3473-0.34 0.2264-0.605 0.5483-0.7614 0.9248-0.1565 0.3766-0.1974 0.791-0.1177 1.1907 0.0798 0.3998 0.2767 0.767 0.5658 1.0552s0.6575 0.4845 1.0585 0.564 0.8167 0.0387 1.1944-0.1173c0.3778-0.156 0.7006-0.4201 0.9278-0.759 0.2271-0.3389 0.3484-0.7373 0.3484-1.1449-6e-4 -0.5464-0.2186-1.0702-0.6062-1.4566-0.3875-0.3863-0.913-0.6036-1.4611-0.6042z" fill="#E6E6E6"/>
<path d="m27.564 97.202c-0.5452 0-1.0781-0.1611-1.5314-0.4631-0.4532-0.3019-0.8065-0.731-1.0152-1.2331-0.2086-0.5021-0.2632-1.0546-0.1568-1.5876 0.1063-0.533 0.3689-1.0226 0.7543-1.4069 0.3855-0.3843 0.8767-0.646 1.4114-0.752 0.5346-0.106 1.0889-0.0516 1.5925 0.1564 0.5037 0.2079 0.9342 0.5601 1.237 1.012 0.3029 0.4519 0.4646 0.9831 0.4646 1.5266-9e-4 0.7284-0.2915 1.4269-0.8083 1.942-0.5167 0.5151-1.2173 0.8049-1.9481 0.8057zm0-4.8086c-0.4089 0-0.8086 0.1209-1.1485 0.3474-0.34 0.2264-0.605 0.5483-0.7614 0.9248-0.1565 0.3766-0.1974 0.7909-0.1177 1.1907 0.0798 0.3998 0.2767 0.767 0.5658 1.0552s0.6575 0.4845 1.0585 0.564 0.8167 0.0387 1.1944-0.1173c0.3778-0.156 0.7006-0.4201 0.9278-0.759 0.2271-0.3389 0.3484-0.7374 0.3484-1.1449-6e-4 -0.5464-0.2186-1.0703-0.6062-1.4566-0.3875-0.3864-0.913-0.6037-1.4611-0.6043z" fill="#fff"/>
<path d="m41.001 74.361c-0.594 0-1.1636 0.2352-1.5836 0.6539s-0.656 0.9865-0.656 1.5786 0.236 1.16 0.656 1.5787 0.9896 0.6539 1.5836 0.6539h32.043c0.5939 0 1.1636-0.2352 1.5836-0.6539s0.6559-0.9866 0.6559-1.5787-0.2359-1.1599-0.6559-1.5786-0.9897-0.6539-1.5836-0.6539h-32.043z" fill="#E6E6E6"/>
<path d="m41.001 83.291c-0.594 0-1.1636 0.2352-1.5836 0.6539-0.42 0.4186-0.656 0.9865-0.656 1.5786s0.236 1.16 0.656 1.5787c0.42 0.4186 0.9896 0.6539 1.5836 0.6539h32.043c0.5939 0 1.1636-0.2353 1.5836-0.6539 0.42-0.4187 0.6559-0.9866 0.6559-1.5787s-0.2359-1.16-0.6559-1.5786c-0.42-0.4187-0.9897-0.6539-1.5836-0.6539h-32.043z" fill="#E6E6E6"/>
<path d="m41.001 92.222c-0.594 0-1.1636 0.2352-1.5836 0.6539-0.42 0.4186-0.656 0.9865-0.656 1.5786s0.236 1.16 0.656 1.5787c0.42 0.4186 0.9896 0.6539 1.5836 0.6539h32.043c0.5939 0 1.1636-0.2353 1.5836-0.6539 0.42-0.4187 0.6559-0.9866 0.6559-1.5787s-0.2359-1.16-0.6559-1.5786c-0.42-0.4187-0.9897-0.6539-1.5836-0.6539h-32.043z" fill="#E6E6E6"/>
<path d="m116.97 79.342c-0.545 0-1.078-0.1612-1.531-0.4631s-0.807-0.7311-1.015-1.2332c-0.209-0.5021-0.264-1.0545-0.157-1.5876 0.106-0.533 0.369-1.0226 0.754-1.4069 0.386-0.3842 0.877-0.6459 1.411-0.752 0.535-0.106 1.089-0.0516 1.593 0.1564s0.934 0.5602 1.237 1.012c0.303 0.4519 0.465 0.9831 0.465 1.5266-1e-3 0.7285-0.292 1.4269-0.809 1.942-0.516 0.5152-1.217 0.8049-1.948 0.8058zm0-4.8086c-0.409 0-0.808 0.1209-1.148 0.3473s-0.605 0.5483-0.762 0.9249c-0.156 0.3765-0.197 0.7909-0.117 1.1907 0.079 0.3997 0.276 0.7669 0.565 1.0551s0.658 0.4845 1.059 0.564 0.817 0.0387 1.194-0.1173c0.378-0.1559 0.701-0.4201 0.928-0.759s0.348-0.7373 0.348-1.1449c0-0.5464-0.218-1.0702-0.606-1.4566-0.387-0.3863-0.913-0.6036-1.461-0.6042z" fill="#E6E6E6"/>
<path d="m116.97 88.272c-0.545 0-1.078-0.1611-1.531-0.463-0.453-0.302-0.807-0.7311-1.015-1.2332-0.209-0.5021-0.264-1.0546-0.157-1.5876 0.106-0.533 0.369-1.0226 0.754-1.4069 0.386-0.3843 0.877-0.646 1.411-0.752 0.535-0.106 1.089-0.0516 1.593 0.1564s0.934 0.5601 1.237 1.012 0.465 0.9831 0.465 1.5266c-1e-3 0.7285-0.292 1.4269-0.809 1.942-0.516 0.5151-1.217 0.8049-1.948 0.8057zm0-4.8085c-0.409 0-0.808 0.1208-1.148 0.3473-0.34 0.2264-0.605 0.5483-0.762 0.9248-0.156 0.3766-0.197 0.791-0.117 1.1907 0.079 0.3998 0.276 0.767 0.565 1.0552s0.658 0.4845 1.059 0.564 0.817 0.0387 1.194-0.1173c0.378-0.156 0.701-0.4201 0.928-0.759s0.348-0.7373 0.348-1.1449c0-0.5464-0.218-1.0702-0.606-1.4566-0.387-0.3863-0.913-0.6036-1.461-0.6042z" fill="#fff"/>
<path d="m116.97 97.202c-0.545 0-1.078-0.1611-1.531-0.4631-0.453-0.3019-0.807-0.731-1.015-1.2331-0.209-0.5021-0.264-1.0546-0.157-1.5876 0.106-0.533 0.369-1.0226 0.754-1.4069 0.386-0.3843 0.877-0.646 1.411-0.752 0.535-0.106 1.089-0.0516 1.593 0.1564 0.504 0.2079 0.934 0.5601 1.237 1.012s0.465 0.9831 0.465 1.5266c-1e-3 0.7284-0.292 1.4269-0.809 1.942-0.516 0.5151-1.217 0.8049-1.948 0.8057zm0-4.8086c-0.409 0-0.808 0.1209-1.148 0.3474-0.34 0.2264-0.605 0.5483-0.762 0.9248-0.156 0.3766-0.197 0.7909-0.117 1.1907 0.079 0.3998 0.276 0.767 0.565 1.0552s0.658 0.4845 1.059 0.564 0.817 0.0387 1.194-0.1173c0.378-0.156 0.701-0.4201 0.928-0.759s0.348-0.7374 0.348-1.1449c0-0.5464-0.218-1.0703-0.606-1.4566-0.387-0.3864-0.913-0.6037-1.461-0.6043z" fill="#E6E6E6"/>
<path d="m116.97 106.13c-0.545 0-1.078-0.161-1.531-0.463s-0.807-0.731-1.015-1.233c-0.209-0.502-0.264-1.055-0.157-1.588 0.106-0.533 0.369-1.022 0.754-1.407 0.386-0.384 0.877-0.646 1.411-0.752 0.535-0.106 1.089-0.051 1.593 0.157s0.934 0.56 1.237 1.012 0.465 0.983 0.465 1.526c-1e-3 0.729-0.292 1.427-0.809 1.942-0.516 0.515-1.217 0.805-1.948 0.806zm0-4.809c-0.409 0-0.808 0.121-1.148 0.348-0.34 0.226-0.605 0.548-0.762 0.925-0.156 0.376-0.197 0.791-0.117 1.19 0.079 0.4 0.276 0.767 0.565 1.055 0.289 0.289 0.658 0.485 1.059 0.564 0.401 0.08 0.817 0.039 1.194-0.117 0.378-0.156 0.701-0.42 0.928-0.759s0.348-0.737 0.348-1.145c0-0.546-0.218-1.07-0.606-1.456-0.387-0.387-0.913-0.604-1.461-0.605z" fill="#E6E6E6"/>
<path d="m130.07 74.361c-0.594 0-1.163 0.2352-1.583 0.6539s-0.656 0.9865-0.656 1.5786 0.236 1.16 0.656 1.5787 0.989 0.6539 1.583 0.6539h32.043c0.594 0 1.164-0.2352 1.584-0.6539s0.656-0.9866 0.656-1.5787-0.236-1.1599-0.656-1.5786-0.99-0.6539-1.584-0.6539h-32.043z" fill="#E6E6E6"/>
<path d="m130.07 83.291c-0.594 0-1.163 0.2352-1.583 0.6539-0.42 0.4186-0.656 0.9865-0.656 1.5786s0.236 1.16 0.656 1.5787c0.42 0.4186 0.989 0.6539 1.583 0.6539h32.043c0.594 0 1.164-0.2353 1.584-0.6539 0.42-0.4187 0.656-0.9866 0.656-1.5787s-0.236-1.16-0.656-1.5786c-0.42-0.4187-0.99-0.6539-1.584-0.6539h-32.043z" fill="#E6E6E6"/>
<path d="m130.07 92.222c-0.594 0-1.163 0.2352-1.583 0.6539-0.42 0.4186-0.656 0.9865-0.656 1.5786s0.236 1.16 0.656 1.5787c0.42 0.4186 0.989 0.6539 1.583 0.6539h32.043c0.594 0 1.164-0.2353 1.584-0.6539 0.42-0.4187 0.656-0.9866 0.656-1.5787s-0.236-1.16-0.656-1.5786c-0.42-0.4187-0.99-0.6539-1.584-0.6539h-32.043z" fill="#E6E6E6"/>
<path d="m130.07 101.15c-0.594 0-1.163 0.235-1.583 0.654-0.42 0.418-0.656 0.986-0.656 1.578s0.236 1.16 0.656 1.579 0.989 0.654 1.583 0.654h32.043c0.594 0 1.164-0.235 1.584-0.654s0.656-0.987 0.656-1.579-0.236-1.16-0.656-1.578c-0.42-0.419-0.99-0.654-1.584-0.654h-32.043z" fill="#E6E6E6"/>
<path d="m27.607 50.834c-0.5939 0-1.1636 0.2352-1.5836 0.6539s-0.6559 0.9865-0.6559 1.5786c0 0.5922 0.2359 1.16 0.6559 1.5787s0.9897 0.6539 1.5836 0.6539h38.245c0.594 0 1.1636-0.2352 1.5836-0.6539s0.656-0.9865 0.656-1.5787c0-0.5921-0.236-1.1599-0.656-1.5786s-0.9896-0.6539-1.5836-0.6539h-38.245z" fill="#E6E6E6"/>
<path d="m27.607 22.325c-0.5939 0-1.1636 0.2353-1.5836 0.6539-0.42 0.4187-0.6559 0.9866-0.6559 1.5787s0.2359 1.16 0.6559 1.5786c0.42 0.4187 0.9897 0.6539 1.5836 0.6539h38.245c0.594 0 1.1636-0.2352 1.5836-0.6539 0.42-0.4186 0.656-0.9865 0.656-1.5786s-0.236-1.16-0.656-1.5787c-0.42-0.4186-0.9896-0.6539-1.5836-0.6539h-38.245z" fill="#1597E5"/>
<path d="m72.142 51.632c-0.0302 0-0.0599 8e-3 -0.0861 0.023-0.0262 0.0151-0.048 0.0368-0.0631 0.0629s-0.0231 0.0557-0.0231 0.0859c0 0.0301 8e-3 0.0597 0.0231 0.0858l1.4623 2.5249c0.0151 0.0261 0.0369 0.0478 0.0631 0.0629 0.0262 0.015 0.0559 0.023 0.0861 0.023 0.0303 0 0.06-8e-3 0.0862-0.023 0.0262-0.0151 0.0479-0.0368 0.0631-0.0629l1.4623-2.5249c0.0151-0.0261 0.023-0.0557 0.023-0.0858 0-0.0302-0.0079-0.0598-0.0231-0.0859-0.0151-0.0261-0.0368-0.0478-0.063-0.0629-0.0262-0.015-0.0559-0.023-0.0862-0.023h-2.9246z" fill="#1597E5"/>
<path d="m116.84 50.834c-0.594 0-1.164 0.2352-1.584 0.6539s-0.656 0.9865-0.656 1.5786c0 0.5922 0.236 1.16 0.656 1.5787s0.99 0.6539 1.584 0.6539h38.245c0.594 0 1.163-0.2352 1.583-0.6539s0.656-0.9865 0.656-1.5787c0-0.5921-0.236-1.1599-0.656-1.5786s-0.989-0.6539-1.583-0.6539h-38.245z" fill="#E6E6E6"/>
<path d="m161.38 51.632c-0.03 0-0.06 8e-3 -0.086 0.023-0.026 0.0151-0.048 0.0368-0.063 0.0629s-0.023 0.0557-0.023 0.0859c0 0.0301 8e-3 0.0597 0.023 0.0858l1.462 2.5249c0.016 0.0261 0.037 0.0478 0.063 0.0629 0.027 0.015 0.056 0.023 0.087 0.023 0.03 0 0.06-8e-3 0.086-0.023 0.026-0.0151 0.048-0.0368 0.063-0.0629l1.462-2.5249c0.015-0.0261 0.023-0.0557 0.023-0.0858 0-0.0302-8e-3 -0.0598-0.023-0.0859s-0.037-0.0478-0.063-0.0629c-0.026-0.015-0.056-0.023-0.086-0.023h-2.925z" fill="#1597E5"/>
<path d="m116.97 86.898c0.762 0 1.379-0.6151 1.379-1.3739s-0.617-1.3739-1.379-1.3739c-0.761 0-1.378 0.6151-1.378 1.3739s0.617 1.3739 1.378 1.3739z" fill="#1597E5"/>
<path d="m27.564 95.828c0.7612 0 1.3782-0.6152 1.3782-1.3739 0-0.7588-0.617-1.3739-1.3782-1.3739-0.7611 0-1.3782 0.6151-1.3782 1.3739 0 0.7587 0.6171 1.3739 1.3782 1.3739z" fill="#1597E5"/>
<path d="m319.59 195h-110.36c-0.108 0-0.213-0.043-0.29-0.12-0.077-0.076-0.12-0.18-0.12-0.289 0-0.108 0.043-0.212 0.12-0.289s0.182-0.12 0.29-0.12h110.36c0.108 0 0.213 0.043 0.29 0.12s0.12 0.181 0.12 0.289c0 0.109-0.043 0.213-0.12 0.289-0.077 0.077-0.182 0.12-0.29 0.12z" fill="#fff"/>
</svg>
