<?xml version="1.0" encoding="UTF-8"?>
<svg fill="none" viewBox="0 0 225 189" xmlns="http://www.w3.org/2000/svg">
<g clip-path="url(#a)" fill="#fff">
<path d="m216.39 34.578c-10.705-20.37-27.991-31.027-51.005-31.192-36.468-0.26111-72.939-0.06931-109.41-0.06931-0.4388 0-0.8804-0.0133-1.3192 0.00949-0.0066 0-0.0142 9.5e-4 -0.0208 9.5e-4 -1.7164-2.0357-4.2801-3.327-7.1445-3.327-5.1681 0-9.3574 4.2063-9.3574 9.3953 0 5.189 4.1893 9.3953 9.3574 9.3953 3.6399 0 6.7937-2.086 8.3408-5.1311 0.1844 1e-3 0.3688 0 0.5523 0 24.649 0 49.298-0.0019 73.945 1e-3 0.583 0 1.168 0.0617 1.673 0.0902-3.098 2.9748-6.22 5.7862-9.102 8.8256-1.156 1.2201-2.251 1.6844-3.879 1.6796-15.782-0.0522-31.565-0.0322-47.346-0.0303-0.1797 0-0.3603-1e-3 -0.54-0.0019-1.6824-2.4934-4.5269-4.1313-7.7516-4.1313-5.1681 0-9.3574 4.2063-9.3574 9.3953s4.1893 9.3953 9.3574 9.3953c3.3145 0 6.2253-1.729 7.8887-4.3383 17.953 0.0152 35.907-0.0066 53.859 0.0437 1.26 0.0048 1.911-0.4918 2.585-1.4252 5.661-7.8305 13.028-13.422 22.095-16.708 4.187-1.5173 8.492-2.5085 13.216-2.5921v4.5481h5.254v-4.55c27.664 1.5278 44.088 26.01 43.618 44.23h-4.299v5.2175h4.521c-0.99 23.712-20.945 43.238-43.997 44.029v-4.481h-5.237v4.732h-8.378c-16.601 0-33.2-1e-3 -49.8 2e-3 -0.754 0-1.512-0.019-2.261 0.055-2.353 0.233-4.0403 1.905-4.3523 4.263-0.4766 3.607 1.6738 6.018 5.4493 6.019 21.001 0.011 42.002 0.019 63.004-0.014 2.13-4e-3 4.272-0.187 6.389-0.449 38.961-4.847 61.765-48.034 43.451-82.886zm-166.04-23.57c-0.5617 1.0046-1.6322 1.6825-2.8616 1.6825-1.8128 0-3.2824-1.4764-3.2824-3.2957 0-1.8202 1.4705-3.2957 3.2824-3.2957 0.9589 0 1.8232 0.41398 2.4228 1.0729 0.5352 0.58584 0.8606 1.3663 0.8606 2.2228-1e-3 0.58679-0.1523 1.1375-0.4218 1.6132zm15.237 20.917c-0.5835 0.5326-1.358 0.8583-2.2081 0.8583-1.8129 0-3.2825-1.4765-3.2825-3.2957 0-1.8202 1.4706-3.2957 3.2825-3.2957 0.8321 0 1.5915 0.3105 2.1693 0.8241 0.6828 0.603 1.1131 1.4879 1.1131 2.4725 0 0.9647-0.4142 1.8335-1.0743 2.4365z"/>
<path d="m118.9 63.157h4.626v-5.2223h-4.932c0.875-4.4427 1.687-8.5645 2.507-12.736 0.079 0.0493 0.032-0.0057-0.015-0.0057-12.637-0.0209-25.274-0.0722-37.911-0.0257-2.4048 0.0095-4.0607 1.7338-4.4503 4.1237-0.5948 3.6499 1.5717 6.1651 5.4631 6.1879 7.2306 0.0437 14.462 0.0143 21.694 0.0143h2.791c-0.887 10.985 1.068 21.256 5.935 31.197h-2.424c-10.884 0-21.767 1e-3 -32.65 0.0019-1.6748-2.5313-4.5411-4.2005-7.797-4.2005-5.1681 0-9.3574 4.2062-9.3574 9.3953 0 5.189 4.1893 9.395 9.3574 9.395 3.2852 0 6.1733-1.6984 7.8424-4.2687 18.208 0.0114 36.413 0.0067 54.62 0.0086h1.776c-10.457-9.1922-16.134-20.193-17.076-33.865zm-45.505 31.574c-0.4861 0.2887-1.0535 0.4529-1.6587 0.4529-1.8128 0-3.2824-1.4764-3.2824-3.2957 0-1.8202 1.4705-3.2957 3.2824-3.2957 0.6005 0 1.1641 0.1624 1.6483 0.4463 0.9778 0.5697 1.6351 1.6322 1.6351 2.8494 0 1.2116-0.6525 2.2712-1.6247 2.8428z"/>
<path d="m96.73 65.79c-0.6251-0.0494-1.2558-0.039-1.8847-0.039-18.015-9e-4 -36.028-9e-4 -54.043 0.0048-1.6757-2.5219-4.5373-4.1826-7.7847-4.1826-5.1681 0-9.3574 4.2063-9.3574 9.3953 0 5.1891 4.1893 9.3954 9.3574 9.3954 3.2682 0 6.1468-1.6826 7.8178-4.232 8.9375 0.019 17.876 0.0048 26.812 0.0048v-0.0105c9.6156 0 19.231 0.0247 28.846-0.0152 2.9807-0.0132 4.9019-2.0537 4.9589-5.0428 0.057-3.0203-1.7474-5.0465-4.7225-5.2782zm-61.962 7.9653c-0.506 0.3229-1.1074 0.509-1.7514 0.509-1.8128 0-3.2824-1.4765-3.2824-3.2958 0-1.8201 1.4705-3.2957 3.2824-3.2957 0.6364 0 1.2322 0.1823 1.7353 0.4985 0.9296 0.5811 1.5481 1.617 1.5481 2.7972 0 1.1736-0.6109 2.2038-1.532 2.7868z"/>
<path d="m70.955 49.639c-0.3187-2.9264-2.2034-4.5149-5.4641-4.5168-14.459-0.0133-28.92-0.0066-43.378-0.0085-1.6502 0-3.3004-0.0333-4.9496-0.0095-1.6739-2.539-4.5459-4.213-7.8065-4.213-5.1681 0-9.3574 4.2063-9.3574 9.3953 0 5.1891 4.1893 9.3954 9.3574 9.3954 3.2531 0 6.1194-1.6674 7.7961-4.1968 7.9965 0.0275 15.994 0.0066 23.991 0.0066 8.1725 0 16.346 0.0427 24.518-0.0199 3.5954-0.0266 5.6645-2.4127 5.2929-5.8328zm-59.367 3.065c-0.5854 0.5459-1.3693 0.8792-2.2308 0.8792-1.8128 0-3.2824-1.4765-3.2824-3.2957 0-1.8202 1.4705-3.2957 3.2824-3.2957 0.87091 0 1.6634 0.3418 2.2516 0.8992 0.6346 0.5991 1.0308 1.4508 1.0308 2.3965 9e-4 0.9542-0.4047 1.8145-1.0516 2.4165z"/>
<path d="m84.11 107.61c-7.764-0.045-15.529-0.049-23.293-0.011-1.6757-2.526-4.5401-4.191-7.7914-4.191-5.168 0-9.3573 4.206-9.3573 9.395 0 5.19 4.1893 9.396 9.3573 9.396 3.2844 0 6.1724-1.699 7.8415-4.266 3.6361 0.022 7.2722-1e-3 10.906-1e-3v-9e-3c4.0825 0 8.1649 0.033 12.248-0.01 3.2276-0.034 5.2485-2.091 5.2163-5.189-0.0302-2.996-2.0474-5.095-5.1283-5.114zm-29.164 7.867c-0.54 0.392-1.2029 0.623-1.9197 0.623-1.8128 0-3.2824-1.476-3.2824-3.296s1.4705-3.295 3.2824-3.295c0.7102 0 1.3674 0.226 1.9046 0.612 0.8341 0.597 1.3788 1.576 1.3788 2.684-1e-3 1.1-0.5391 2.074-1.3637 2.672z"/>
<path d="m204.78 59.24v3.3993c0 0.5212-0.421 0.9428-0.939 0.9428h-33.5c-0.959 1.7651-2.865 2.9378-5.033 2.8295-2.755-0.1376-4.994-2.3861-5.131-5.152-0.108-2.1772 1.06-4.0904 2.818-5.0532v-33.546c0-0.5706 0.46-1.033 1.029-1.033h3.077c0.593 0 1.073 0.4823 1.073 1.0777v33.501c0.915 0.5013 1.669 1.2571 2.167 2.1753h33.585c0.472 0 0.854 0.3845 0.854 0.8583z"/>
<path d="m34.851 161.48c0.4539 0 0.8861 0.162 1.2965 0.485 0.4105 0.324 0.6743 0.72 0.7916 1.191 0.2345 0.898 0.4142 1.567 0.538 2.009 0.1239 0.441 0.2157 0.765 0.2752 0.971 0.0587 0.206 0.0993 0.357 0.1211 0.452 0.0217 0.096 0.0624 0.251 0.121 0.463 0.0587 0.214 0.1466 0.541 0.2639 0.982 0.1172 0.442 0.2997 1.111 0.5494 2.008 0.3225 1.119 0.4832 2.097 0.4832 2.935 0 0.839-0.1248 1.56-0.3735 2.163-0.2497 0.604-0.6081 1.107-1.0771 1.512-0.4691 0.404-1.0185 0.724-1.6483 0.96-0.6298 0.235-1.3221 0.4-2.0767 0.496s-1.5348 0.144-2.3405 0.144h-21.585l-3.6928-14.057c-0.0435-0.279-0.13523-0.508-0.27519-0.684-0.13902-0.177-0.29694-0.313-0.47284-0.409-0.17589-0.096-0.35935-0.157-0.54943-0.188-0.19102-0.029-0.37354-0.043-0.54943-0.043l-0.00662-0.032-2.5533-1.329 8.6491-0.029c0.4691 0 0.9088 0.162 1.3192 0.485 0.4105 0.324 0.6743 0.72 0.7916 1.191l2.2856 8.651h17.474l-2.0001-7.614c-0.0435-0.279-0.1352-0.508-0.2752-0.684-0.139-0.177-0.2969-0.313-0.4728-0.409-0.1759-0.095-0.3594-0.157-0.5495-0.188-0.191-0.029-0.3735-0.043-0.5494-0.043l6.0882-1.389zm-17.979-8.518c0.3953 0 0.765 0.074 1.1102 0.22 0.3442 0.147 0.6449 0.349 0.9012 0.607 0.2563 0.257 0.4577 0.563 0.6043 0.916s0.2194 0.728 0.2194 1.125c0 0.383-0.0738 0.747-0.2194 1.092-0.1466 0.346-0.348 0.651-0.6043 0.916s-0.557 0.475-0.9012 0.629c-0.3442 0.155-0.714 0.232-1.1102 0.232-0.3963 0-0.766-0.077-1.1102-0.232-0.3443-0.155-0.6488-0.364-0.9126-0.629s-0.4691-0.569-0.6156-0.916c-0.1466-0.346-0.2194-0.709-0.2194-1.092 0-0.397 0.0728-0.772 0.2194-1.125 0.1465-0.353 0.3518-0.658 0.6156-0.916s0.5674-0.46 0.9126-0.607c0.3442-0.147 0.7139-0.22 1.1102-0.22zm6.7691 0c0.3953 0 0.765 0.074 1.1102 0.22 0.3442 0.147 0.6449 0.349 0.9012 0.607 0.2563 0.257 0.4615 0.563 0.6156 0.916 0.1542 0.353 0.2308 0.728 0.2308 1.125 0 0.383-0.0766 0.747-0.2308 1.092-0.1541 0.346-0.3593 0.651-0.6156 0.916s-0.557 0.475-0.9012 0.629c-0.3442 0.155-0.714 0.232-1.1102 0.232-0.3963 0-0.7689-0.077-1.1206-0.232-0.3518-0.155-0.6592-0.364-0.923-0.629-0.2639-0.265-0.4691-0.569-0.6156-0.916-0.1466-0.346-0.2194-0.709-0.2194-1.092 0-0.397 0.0728-0.772 0.2194-1.125 0.1465-0.353 0.3517-0.658 0.6156-0.916 0.2638-0.258 0.5712-0.46 0.923-0.607 0.3517-0.147 0.7253-0.22 1.1206-0.22z"/>
<path d="m46.653 153.32c0.2346 0 0.4653 0.044 0.6923 0.132 0.2269 0.088 0.4359 0.206 0.626 0.353s0.3546 0.324 0.4946 0.53c0.139 0.206 0.2383 0.42 0.2969 0.64l6.1544 23.083h-6.6159l-5.8905-22.046c-0.0435-0.279-0.1353-0.508-0.2752-0.685-0.139-0.176-0.297-0.312-0.4728-0.408-0.1759-0.096-0.3594-0.158-0.5495-0.188-0.191-0.03-0.3669-0.044-0.5277-0.044"/>
<path d="m75.71 177.22c0.4539 1.368 0.6629 2.493 0.626 3.376-0.0368 0.883-0.2458 1.6-0.626 2.152-0.3811 0.551-0.905 0.971-1.5717 1.258s-1.3996 0.518-2.1977 0.695c-0.7991 0.176-1.6379 0.342-2.5165 0.496-0.8785 0.155-1.7296 0.376-2.5495 0.662-0.8208 0.287-1.5755 0.673-2.2639 1.159-0.6894 0.485-1.2388 1.148-1.6483 1.986-0.2497-1.28-0.3007-2.332-0.1542-3.156 0.1466-0.824 0.4143-1.49 0.802-1.997 0.3877-0.508 0.8605-0.891 1.4175-1.148s1.1244-0.467 1.7032-0.628c0.5787-0.163 1.1282-0.309 1.6483-0.442 0.5201-0.132 0.9409-0.324 1.2634-0.573 0.3225-0.25 0.5088-0.593 0.5608-1.027 0.051-0.434-0.1135-1.041-0.4946-1.82-1.6417 0.015-3.2635 0.026-4.8683 0.033-1.6048 8e-3 -3.22 0.012-4.8466 0.012-0.4539 0-0.887-0.162-1.2965-0.486-0.4104-0.323-0.6818-0.72-0.8132-1.191-0.2053-0.765-0.3594-1.339-0.4615-1.722-0.1031-0.382-0.1797-0.676-0.2308-0.883-0.051-0.206-0.0955-0.375-0.1314-0.508-0.0369-0.132-0.0918-0.327-0.1646-0.585-0.0737-0.257-0.1759-0.624-0.3073-1.103-0.1315-0.478-0.3149-1.174-0.5494-2.085-0.4833-1.677-0.6195-3.045-0.4067-4.105 0.2118-1.059 0.6667-1.894 1.3627-2.505 0.696-0.61 1.5746-1.029 2.6375-1.258 1.062-0.227 2.2015-0.341 3.4176-0.341h8.3304l4.3293 15.734zm-8.7919-9.313h-4.7037l1.0771 4.016h4.7037l-1.0771-4.016z"/>
<path d="m78.326 160.05c0.0435 0.162 0.1021 0.331 0.1759 0.508 0.0728 0.176 0.1759 0.339 0.3073 0.485 0.1315 0.147 0.297 0.265 0.4946 0.353 0.1976 0.089 0.4426 0.118 0.7367 0.089h5.0328c1.2162 0 2.4181 0.114 3.6049 0.341 1.1868 0.228 2.297 0.648 3.3297 1.259 1.0327 0.61 1.949 1.445 2.7472 2.504 0.7981 1.06 1.41 2.428 1.8355 4.105l0.5059 1.567c0.2781 1.413 0.2677 2.571-0.0331 3.476-0.3007 0.905-0.8019 1.619-1.5055 2.14-0.7035 0.522-1.5575 0.883-2.5608 1.081-1.0043 0.199-2.0767 0.299-3.22 0.299h-5.2967c-0.3074-0.03-0.5381 0-0.6922 0.088-0.1542 0.088-0.2563 0.202-0.3074 0.342-0.051 0.139-0.07 0.298-0.0548 0.474 0.0142 0.177 0.0435 0.346 0.0879 0.508l0.1882 0.645-0.8691 2.004-2.5277-8.894c-0.1173-0.442-0.0511-0.821 0.1976-1.137s0.6081-0.475 1.0771-0.475h8.9895l-0.6156-2.118c-0.1466-0.53-0.3376-0.916-0.5712-1.158-0.2345-0.243-0.4946-0.409-0.7801-0.497-0.2856-0.088-0.5826-0.128-0.8899-0.122-0.3074 8e-3 -0.6156-3e-3 -0.923-0.033l-6.2641 0.022c-0.2345 0-0.4653-0.044-0.6922-0.132-0.227-0.088-0.436-0.202-0.6261-0.342-0.191-0.139-0.3555-0.308-0.4945-0.508-0.1391-0.198-0.2383-0.408-0.297-0.628"/>
<path d="m100.3 151.51-0.285-0.86h1.758c0.102 0 0.209-0.012 0.318-0.033 0.11-0.022 0.205-0.063 0.286-0.122 0.08-0.059 0.127-0.147 0.143-0.265 0.014-0.118-0.016-0.265-0.088-0.441l-0.769-2.45c-0.088-0.294-0.059-0.544 0.088-0.75 0.146-0.206 0.366-0.309 0.659-0.309h5.824l0.264 0.883h-1.714c-0.118 0-0.231 0.012-0.341 0.034-0.11 0.021-0.205 0.062-0.285 0.121-0.081 0.059-0.129 0.143-0.143 0.254-0.015 0.11 0.014 0.253 0.088 0.43l0.769 2.449c0.088 0.295 0.062 0.544-0.077 0.751-0.139 0.206-0.356 0.308-0.649 0.308h-5.846zm22.595 1.809c0.235 0 0.465 0.044 0.692 0.132s0.436 0.206 0.626 0.353 0.356 0.324 0.495 0.53 0.238 0.42 0.297 0.64c0.366 1.354 0.714 2.644 1.044 3.873s0.659 2.45 0.989 3.663c0.33 1.214 0.659 2.436 0.989 3.663 0.33 1.229 0.678 2.52 1.044 3.873 0.483 1.677 0.619 3.045 0.407 4.105-0.213 1.06-0.667 1.894-1.363 2.505-0.696 0.61-1.575 1.03-2.637 1.258-1.063 0.228-2.202 0.342-3.418 0.342h-16.99c-0.293-0.03-0.538 0-0.737 0.088-0.198 0.088-0.362 0.202-0.494 0.342-0.132 0.139-0.238 0.302-0.319 0.485-0.08 0.184-0.143 0.357-0.187 0.518l-0.062 0.338-2.07 2.311 2.374-8.916c0.117-0.442 0.385-0.821 0.802-1.137 0.418-0.316 0.86-0.475 1.33-0.475h4.132l-4.219-15.8c-0.044-0.279-0.136-0.508-0.276-0.685-0.139-0.176-0.297-0.312-0.473-0.408-0.175-0.096-0.359-0.158-0.549-0.188-0.191-0.03-0.373-0.044-0.549-0.044h-2.726l-0.373-1.368h9.187c0.219 0 0.443 0.044 0.67 0.132s0.436 0.206 0.626 0.353 0.356 0.324 0.495 0.53 0.238 0.42 0.297 0.64l4.528 16.838h6.418l-4.242-15.8c-0.044-0.279-0.135-0.508-0.275-0.685-0.139-0.176-0.296-0.312-0.472-0.408s-0.36-0.158-0.55-0.188c-0.191-0.03-0.367-0.044-0.527-0.044"/>
<path d="m136.99 153.32c0.235 0 0.466 0.044 0.693 0.132 0.226 0.088 0.435 0.206 0.626 0.353 0.19 0.147 0.354 0.324 0.494 0.53 0.139 0.206 0.238 0.42 0.297 0.64l6.155 23.083h-6.616l-5.891-22.046c-0.043-0.279-0.135-0.508-0.275-0.685-0.139-0.176-0.297-0.312-0.473-0.408s-0.359-0.158-0.549-0.188c-0.191-0.03-0.367-0.044-0.528-0.044"/>
<path d="m162 161.48c0.454 0 0.886 0.162 1.297 0.485 0.41 0.324 0.682 0.72 0.813 1.191l2.307 8.651h4.55v6.445h-2.813l0.242 0.904c0.483 1.677 0.618 3.045 0.406 4.105s-0.666 1.891-1.362 2.494c-0.696 0.602-1.576 1.018-2.638 1.246-1.063 0.228-2.201 0.342-3.417 0.342h-2.88c0.601-0.353 1.168-0.699 1.703-1.037 0.535-0.339 0.982-0.739 1.341-1.203 0.359-0.463 0.608-1.026 0.747-1.688s0.114-1.494-0.076-2.493l-4.462-16.729c-0.043-0.279-0.135-0.508-0.275-0.684-0.139-0.177-0.297-0.313-0.473-0.409-0.176-0.095-0.359-0.157-0.549-0.188-0.191-0.029-0.374-0.043-0.55-0.043l6.089-1.389zm-3.187-8.518c0.396 0 0.765 0.074 1.111 0.22 0.344 0.147 0.645 0.349 0.901 0.607 0.256 0.257 0.458 0.563 0.604 0.916 0.147 0.353 0.219 0.728 0.219 1.125 0 0.383-0.073 0.747-0.219 1.092-0.146 0.346-0.348 0.651-0.604 0.916s-0.557 0.475-0.901 0.629c-0.345 0.155-0.714 0.232-1.111 0.232-0.396 0-0.766-0.077-1.11-0.232s-0.649-0.364-0.912-0.629c-0.264-0.265-0.469-0.569-0.616-0.916-0.147-0.346-0.219-0.709-0.219-1.092 0-0.397 0.072-0.772 0.219-1.125s0.352-0.658 0.616-0.916c0.263-0.258 0.567-0.46 0.912-0.607 0.344-0.147 0.714-0.22 1.11-0.22z"/>
<path d="m172.73 160.05c0.043 0.162 0.102 0.331 0.176 0.508 0.073 0.176 0.176 0.339 0.307 0.485 0.132 0.147 0.297 0.265 0.495 0.353 0.197 0.089 0.442 0.118 0.736 0.089h9.584c1.201 0 2.399 0.114 3.593 0.341 1.195 0.228 2.304 0.648 3.33 1.259 1.025 0.61 1.938 1.445 2.737 2.504 0.798 1.06 1.417 2.428 1.857 4.105l0.594 2.118h3.341v6.445h-29.013v-6.445h19.034l-0.615-2.118c-0.147-0.53-0.338-0.916-0.572-1.158-0.234-0.243-0.494-0.409-0.78-0.497-0.285-0.088-0.582-0.128-0.89-0.122-0.307 8e-3 -0.615-3e-3 -0.923-0.033l-10.792 0.022c-0.234 0-0.465-0.044-0.692-0.132s-0.436-0.202-0.626-0.342c-0.191-0.139-0.355-0.308-0.494-0.508-0.139-0.198-0.239-0.408-0.297-0.628l-0.09-6.246zm10.726 20.788c0.395 0 0.765 0.074 1.11 0.221 0.344 0.147 0.645 0.349 0.901 0.606 0.256 0.258 0.462 0.563 0.616 0.917 0.154 0.353 0.23 0.728 0.23 1.125 0 0.382-0.076 0.746-0.23 1.092-0.154 0.345-0.36 0.651-0.616 0.916s-0.557 0.475-0.901 0.628c-0.344 0.155-0.714 0.232-1.11 0.232-0.397 0-0.769-0.077-1.121-0.232-0.352-0.154-0.659-0.363-0.923-0.628s-0.469-0.571-0.616-0.916c-0.146-0.346-0.219-0.711-0.219-1.092 0-0.397 0.073-0.772 0.219-1.125 0.147-0.354 0.352-0.659 0.616-0.917 0.264-0.257 0.571-0.459 0.923-0.606s0.725-0.221 1.121-0.221z"/>
<path d="m201.5 160.05c0.043 0.162 0.102 0.331 0.176 0.508 0.073 0.176 0.176 0.339 0.307 0.485 0.131 0.147 0.297 0.265 0.495 0.353 0.197 0.089 0.442 0.118 0.736 0.089h9.584c1.216 0 2.418 0.114 3.605 0.341 1.186 0.228 2.293 0.648 3.319 1.259 1.025 0.61 1.938 1.445 2.737 2.504 0.798 1.06 1.417 2.428 1.857 4.105l0.483 1.567c0.278 1.413 0.272 2.571-0.021 3.476-0.294 0.905-0.792 1.619-1.495 2.14-0.703 0.522-1.557 0.883-2.56 1.081-1.005 0.199-2.077 0.299-3.221 0.299h-18.462v-6.445h19.232l-0.594-2.118c-0.146-0.53-0.337-0.916-0.571-1.158-0.234-0.243-0.494-0.409-0.78-0.497s-0.586-0.128-0.901-0.122c-0.315 8e-3 -0.626-3e-3 -0.935-0.033l-10.792 0.022c-0.234 0-0.465-0.044-0.692-0.132s-0.436-0.202-0.626-0.342c-0.191-0.139-0.355-0.308-0.494-0.508-0.139-0.198-0.239-0.408-0.297-0.628"/>
</g>
<defs>
<clipPath id="a">
<rect width="225" height="189" fill="#fff"/>
</clipPath>
</defs>
</svg>
